<svg id="Capa_1" data-name="Capa 1" xmlns="http://www.w3.org/2000/svg" xmlns:xlink="http://www.w3.org/1999/xlink" viewBox="0 0 400 400"><defs><style>.cls-1{fill:#3400ef;}.cls-2{font-size:27.49px;font-family:SourceSansPro-Regular, Source Sans Pro;letter-spacing:0.2em;}.cls-2,.cls-3{fill:#fff;}.cls-4{opacity:0.3;}.cls-5{fill:url(#Degradado_sin_nombre_2);}</style><linearGradient id="Degradado_sin_nombre_2" x1="138.97" y1="208.87" x2="184.46" y2="163.39" gradientUnits="userSpaceOnUse"><stop offset="0" stop-color="#fff"/><stop offset="0.2" stop-color="#fcfcfc"/><stop offset="0.33" stop-color="#f3f3f3"/><stop offset="0.45" stop-color="#e4e4e4"/><stop offset="0.55" stop-color="#cecece"/><stop offset="0.65" stop-color="#b2b2b2"/><stop offset="0.74" stop-color="#909090"/><stop offset="0.83" stop-color="#676767"/><stop offset="0.92" stop-color="#383838"/><stop offset="0.99" stop-color="#040404"/><stop offset="1"/></linearGradient></defs><rect class="cls-1" x="-3.78" y="-3.78" width="407.56" height="407.56"/><text class="cls-2" transform="translate(89.33 264.51)">HUB NEW ENT</text><polygon class="cls-3" points="258 204.21 258 186.34 301.42 186.34 301.42 165.68 258 165.68 258 149.21 307.28 149.21 307.28 127.85 253.48 127.85 230.64 127.85 226.4 127.85 226.4 179.92 183.31 127.91 183.31 127.85 183.26 127.85 160.5 127.85 155.67 127.85 155.67 164.56 117.97 164.56 117.97 127.85 90.33 127.85 90.33 225.57 117.97 225.57 117.97 187.46 155.67 187.46 155.67 225.57 160.5 225.57 183.31 225.57 187.59 225.57 187.59 173.5 230.64 225.47 230.64 225.57 230.72 225.57 253.48 225.57 309.1 225.57 309.1 204.21 258 204.21"/><g class="cls-4"><polygon class="cls-5" points="187.59 173.5 155.67 134.59 155.67 164.56 117.97 164.56 117.97 187.46 155.67 187.46 155.67 225.57 187.59 225.57 187.59 173.5"/></g></svg>