<?xml version="1.0" encoding="utf-8"?>
<!-- Generator: Adobe Illustrator 27.6.1, SVG Export Plug-In . SVG Version: 6.00 Build 0)  -->
<svg version="1.1" id="Capa_1" xmlns="http://www.w3.org/2000/svg" xmlns:xlink="http://www.w3.org/1999/xlink" x="0px" y="0px"
	 viewBox="0 0 400 148" style="enable-background:new 0 0 400 148;" xml:space="preserve">
<style type="text/css">
	.st0{fill:#232326;stroke:#FFFFFF;stroke-miterlimit:10;}
</style>
<g transform="matrix( 1, 0, 0, 1, 0,0) ">
	<g>
		<g id="a">
			<path class="st0" d="M380.5,50.8c1.7-3.7,4.1-6.4,7.3-8.1c2.8-0.7,4.3-5.5,4.3-14.3c0-8.7-1.4-13-4.1-13
				c-24.5-4.1-51.8-5.9-81.9-5.3c-36.3,0.7-67.6,4.9-93.9,12.6h-24.5C161.3,15,130.1,10.8,94,10.1c-30.3-0.6-57.6,1.2-81.9,5.3
				C9.6,16.2,8.3,20.8,8,29c-0.1,8.2,0.8,12.7,2.8,13.4c5.1,2.7,8.1,7,9,12.8l2.1,8.1c2,8.1,4.3,18.7,7,31.8s7.4,23.2,14.1,30.3
				c3.4,3.6,6.5,5.8,9.2,6.8l13.4,2.8c10.8,2,21.1,3,30.9,3c12.7,0,22.5-0.6,29.7-1.9c8.5-1.4,16.4-4.1,23.5-8.1
				c6.7-3.7,12.4-10,17.1-19c2.4-4.6,4.2-8.7,5.3-12.6c1.3-3.1,2.8-7.2,4.5-12.2c3.4-9.7,6.3-18.3,8.5-26c0.3-1.4,1.8-2.5,4.7-3.2
				c2.7-0.7,5.8-1.1,9.4-1.1c3.8,0,7,0.4,9.6,1.1c2.8,0.7,4.4,1.8,4.7,3.2c2.3,7.7,5.1,16.4,8.5,26.2c1.7,4.8,3.2,8.8,4.5,11.9
				l1.3,3.6c1.1,3.1,2.5,6.1,4.1,9c4.8,9,10.5,15.3,17.1,19c7.3,4,15.1,6.7,23.7,8.1c7,1.3,16.8,1.9,29.4,1.9c9.8,0,20.1-1,30.9-3
				c5.4-1,9.9-1.9,13.4-2.8l2.8-1.1c2.1-1.3,4.3-3,6.4-5.1c6.8-7,11.5-17.2,14.1-30.7c2.7-13.7,5.1-24.5,7.3-32.4L380.5,50.8z"/>
		</g>
	</g>
</g>
</svg>
