<?xml version="1.0" encoding="UTF-8"?>
<svg width="30px" height="30px" viewBox="0 0 30 30" version="1.1" xmlns="http://www.w3.org/2000/svg" xmlns:xlink="http://www.w3.org/1999/xlink">
    <!-- Generator: Sketch 52.3 (67297) - http://www.bohemiancoding.com/sketch -->
    <title>Instagram</title>
    <desc>Created with Sketch.</desc>
    <defs>
        <polygon id="path-1" points="0 0 30 0 30 30 0 30"></polygon>
    </defs>
    <g id="Desktop-1440px" stroke="none" stroke-width="1" fill="none" fill-rule="evenodd">
        <g id="Desktop-HD" transform="translate(-95.000000, -671.000000)">
            <g id="Instagram" transform="translate(95.000000, 671.000000)">
                <mask id="mask-2" fill="white">
                    <use xlink:href="#path-1"></use>
                </mask>
                <g id="Clip-2"></g>
                <path d="M15.0000298,0 C10.9262446,0 10.4154287,0.0172673522 8.81551918,0.0902665722 C7.21894407,0.163087164 6.12854055,0.416679071 5.17443003,0.787510346 C4.18804742,1.17078602 3.35153352,1.68368592 2.51757995,2.51757995 C1.68368592,3.35153352 1.17078602,4.18804742 0.787510346,5.17443003 C0.416679071,6.12854055 0.163087164,7.21894407 0.0902665722,8.81551918 C0.0172673522,10.4154287 0,10.9262446 0,15.0000298 C0,19.0737554 0.0172673522,19.5845713 0.0902665722,21.1844808 C0.163087164,22.7810559 0.416679071,23.8714594 0.787510346,24.82557 C1.17078602,25.8119526 1.68368592,26.6484665 2.51757995,27.48242 C3.35153352,28.3163141 4.18804742,28.829214 5.17443003,29.2125492 C6.12854055,29.5833209 7.21894407,29.8369128 8.81551918,29.9097334 C10.4154287,29.9827326 10.9262446,30 15.0000298,30 C19.0737554,30 19.5845713,29.9827326 21.1844808,29.9097334 C22.7810559,29.8369128 23.8714594,29.5833209 24.82557,29.2125492 C25.8119526,28.829214 26.6484665,28.3163141 27.48242,27.48242 C28.3163141,26.6484665 28.829214,25.8119526 29.2125492,24.82557 C29.5833209,23.8714594 29.8369128,22.7810559 29.9097334,21.1844808 C29.9827326,19.5845713 30,19.0737554 30,15.0000298 C30,10.9262446 29.9827326,10.4154287 29.9097334,8.81551918 C29.8369128,7.21894407 29.5833209,6.12854055 29.2125492,5.17443003 C28.829214,4.18804742 28.3163141,3.35153352 27.48242,2.51757995 C26.6484665,1.68368592 25.8119526,1.17078602 24.82557,0.787510346 C23.8714594,0.416679071 22.7810559,0.163087164 21.1844808,0.0902665722 C19.5845713,0.0172673522 19.0737554,0 15.0000298,0 Z M15.0000298,2.70269787 C19.0051623,2.70269787 19.4795977,2.71800032 21.0612872,2.79016595 C22.5237724,2.85685365 23.318011,3.10121646 23.8465706,3.3066384 C24.546732,3.57874806 25.0464135,3.90379108 25.5712814,4.42871858 C26.0962089,4.95358655 26.4212519,5.453268 26.6933616,6.15342936 C26.8987835,6.68198896 27.1431463,7.47622762 27.2098341,8.93871281 C27.2819997,10.5204023 27.2973021,10.9948377 27.2973021,15.0000298 C27.2973021,19.0051623 27.2819997,19.4795977 27.2098341,21.0612872 C27.1431463,22.5237724 26.8987835,23.318011 26.6933616,23.8465706 C26.4212519,24.546732 26.0962089,25.0464135 25.5712814,25.5712814 C25.0464135,26.0962089 24.546732,26.4212519 23.8465706,26.6933616 C23.318011,26.8987835 22.5237724,27.1431463 21.0612872,27.2098341 C19.4798359,27.2819997 19.0054601,27.2973021 15.0000298,27.2973021 C10.9945399,27.2973021 10.5202236,27.2819997 8.93871281,27.2098341 C7.47622762,27.1431463 6.68198896,26.8987835 6.15342936,26.6933616 C5.453268,26.4212519 4.95358655,26.0962089 4.42871858,25.5712814 C3.90385062,25.0464135 3.57874806,24.546732 3.3066384,23.8465706 C3.10121646,23.318011 2.85685365,22.5237724 2.79016595,21.0612872 C2.71800032,19.4795977 2.70269787,19.0051623 2.70269787,15.0000298 C2.70269787,10.9948377 2.71800032,10.5204023 2.79016595,8.93871281 C2.85685365,7.47622762 3.10121646,6.68198896 3.3066384,6.15342936 C3.57874806,5.453268 3.90379108,4.95358655 4.42871858,4.42871858 C4.95358655,3.90379108 5.453268,3.57874806 6.15342936,3.3066384 C6.68198896,3.10121646 7.47622762,2.85685365 8.93871281,2.79016595 C10.5204023,2.71800032 10.9948377,2.70269787 15.0000298,2.70269787 Z" id="Fill-1" fill="#F5F5F5" mask="url(#mask-2)"></path>
                <path d="M15.3488669,20.3304805 C12.5975388,20.3304805 10.3671939,18.1001357 10.3671939,15.3488669 C10.3671939,12.5975388 12.5975388,10.3671939 15.3488669,10.3671939 C18.1001357,10.3671939 20.3304805,12.5975388 20.3304805,15.3488669 C20.3304805,18.1001357 18.1001357,20.3304805 15.3488669,20.3304805 Z M15.3488669,7.6744186 C11.1103456,7.6744186 7.6744186,11.1103456 7.6744186,15.3488669 C7.6744186,19.5873288 11.1103456,23.0232558 15.3488669,23.0232558 C19.5873288,23.0232558 23.0232558,19.5873288 23.0232558,15.3488669 C23.0232558,11.1103456 19.5873288,7.6744186 15.3488669,7.6744186 Z" id="Fill-4" fill="#F5F5F5" mask="url(#mask-2)"></path>
                <path d="M24.4186047,7.32561024 C24.4186047,8.28890659 23.6376861,9.06976744 22.6743898,9.06976744 C21.7111511,9.06976744 20.9302326,8.28890659 20.9302326,7.32561024 C20.9302326,6.3623139 21.7111511,5.58139535 22.6743898,5.58139535 C23.6376861,5.58139535 24.4186047,6.3623139 24.4186047,7.32561024" id="Fill-5" fill="#F5F5F5" mask="url(#mask-2)"></path>
            </g>
        </g>
    </g>
</svg>