<?xml version="1.0" encoding="utf-8"?>
<!-- Generator: Adobe Illustrator 26.4.1, SVG Export Plug-In . SVG Version: 6.00 Build 0)  -->
<svg version="1.1" id="Capa_1" xmlns="http://www.w3.org/2000/svg" xmlns:xlink="http://www.w3.org/1999/xlink" x="0px" y="0px"
	 viewBox="0 0 700 700" style="enable-background:new 0 0 700 700;" xml:space="preserve">
<style type="text/css">
	.st0{fill-rule:evenodd;clip-rule:evenodd;fill:#FFFFFF;}
</style>
<g>
	<path class="st0" d="M105,485.5c0,22,8.7,43,24.2,58.6c15.5,15.5,36.6,24.2,58.6,24.2h391.4c22,0,43-8.7,58.6-24.2
		c15.5-15.5,24.2-36.6,24.2-58.6v-271c0-22-8.7-43-24.2-58.6c-15.5-15.5-36.6-24.2-58.6-24.2H187.8c-22,0-43,8.7-58.6,24.2
		c-15.5,15.5-24.2,36.6-24.2,58.6v45.2c0,12.5,10.1,22.6,22.6,22.6s22.6-10.1,22.6-22.6v-45.2c0-10,4-19.5,11-26.6
		c7.1-7,16.6-11,26.6-11h391.4c10,0,19.5,4,26.6,11c7,7.1,11,16.6,11,26.6v271c0,10-4,19.5-11,26.6c-7.1,7-16.6,11-26.6,11H187.8
		c-10,0-19.5-4-26.6-11c-7-7.1-11-16.6-11-26.6c0-12.5-10.1-22.6-22.6-22.6S105,473,105,485.5L105,485.5z"/>
	<path class="st0" d="M37.2,447.8h135.5c12.5,0,22.6-10.1,22.6-22.6c0-12.5-10.1-22.6-22.6-22.6H37.2c-12.5,0-22.6,10.1-22.6,22.6
		C14.7,437.7,24.8,447.8,37.2,447.8z"/>
	<path class="st0" d="M97.5,357.5h75.3c12.5,0,22.6-10.1,22.6-22.6c0-12.5-10.1-22.6-22.6-22.6H97.5c-12.5,0-22.6,10.1-22.6,22.6
		C74.9,347.4,85,357.5,97.5,357.5z"/>
	<path class="st0" d="M130.7,218.6c0,0,143.4,89.7,208.9,130.6c26.9,16.8,60.9,16.8,87.8,0c65.5-40.9,208.9-130.6,208.9-130.6
		c10.6-6.6,13.8-20.5,7.2-31.1c-6.6-10.6-20.5-13.8-31.1-7.2c0,0-143.5,89.7-209,130.6c-12.2,7.6-27.7,7.6-39.9,0l-209-130.6
		c-10.6-6.6-24.5-3.4-31.1,7.2C116.9,198.1,120.1,212,130.7,218.6L130.7,218.6z"/>
</g>
</svg>
